<svg width="40" height="20" viewBox="0 0 38 31" fill="none" xmlns="http://www.w3.org/2000/svg">
<path d="M19 29.0625C9.8325 29.0625 2.375 22.9787 2.375 15.5C2.375 8.02125 9.8325 1.9375 19 1.9375C28.1675 1.9375 35.625 8.02125 35.625 15.5C35.625 22.9787 28.1675 29.0625 19 29.0625ZM19 3.875C11.1388 3.875 4.75 9.08688 4.75 15.5C4.75 21.9131 11.1388 27.125 19 27.125C26.8612 27.125 33.25 21.9131 33.25 15.5C33.25 9.08688 26.8612 3.875 19 3.875Z" fill="#1ED760"/>
<path d="M23.75 20.3438C23.5363 20.3438 23.3225 20.305 23.1325 20.2081L17.195 17.3019C17.0191 17.2157 16.874 17.0934 16.774 16.9472C16.674 16.8011 16.6226 16.6361 16.625 16.4688V8.71875C16.625 8.17625 17.1475 7.75 17.8125 7.75C18.4775 7.75 19 8.17625 19 8.71875V15.9263L24.3675 18.5419C24.5886 18.6524 24.7595 18.8187 24.8542 19.0156C24.949 19.2125 24.9625 19.4293 24.8927 19.633C24.8229 19.8367 24.6736 20.0163 24.4673 20.1446C24.2611 20.2729 24.0093 20.3428 23.75 20.3438Z" fill="#1ED760"/>
</svg>

